<svg id="svg" fill="#BBBBBB" stroke="#BBBBBB" width="200" height="200" version="1.1" viewBox="124 124 552 552" xmlns="http://www.w3.org/2000/svg" stroke-width="20">
    <g id="IconSvg_bgCarrier" stroke-width="0"></g>
    <g id="IconSvg_tracerCarrier" stroke-linecap="round" stroke-linejoin="round" stroke="#CCCCCC" stroke-width="0">
      <g xmlns="http://www.w3.org/2000/svg">
  <path d="m338.6 494.46c4.7734 2.7969 10.207 4.2734 15.742 4.2734s10.969-1.4766 15.746-4.2734l116.39-67.195c9.7422-5.625 15.742-16.02 15.742-27.266 0-11.25-6-21.645-15.742-27.27l-116.39-67.195c-9.7422-5.625-21.746-5.625-31.488 0-9.7422 5.625-15.746 16.02-15.746 27.27v134.39c-0.035156 5.5312 1.4062 10.977 4.1719 15.77 2.7695 4.793 6.7617 8.7617 11.574 11.496zm15.742-161.66 116.3 67.199-116.39 67.195z"></path>
  <path d="m400 604.67c54.281 0 106.34-21.562 144.72-59.949 38.387-38.383 59.949-90.441 59.949-144.72 0-54.285-21.562-106.34-59.949-144.73-38.383-38.383-90.441-59.949-144.72-59.949-54.285 0-106.34 21.566-144.73 59.949-38.383 38.383-59.949 90.441-59.949 144.73 0.0625 54.262 21.648 106.29 60.02 144.66 38.367 38.367 90.391 59.953 144.66 60.016zm0-377.86c45.93 0 89.98 18.246 122.46 50.727 32.48 32.477 50.727 76.527 50.727 122.46 0 45.93-18.246 89.98-50.727 122.46-32.477 32.48-76.527 50.727-122.46 50.727-45.934 0-89.984-18.246-122.46-50.727-32.48-32.477-50.727-76.527-50.727-122.46 0.054688-45.918 18.32-89.934 50.785-122.4 32.469-32.465 76.484-50.73 122.4-50.785z"></path>
 </g>

      </g>
     <g id="IconSvg_iconCarrier">
      <g xmlns="http://www.w3.org/2000/svg">
  <path d="m338.6 494.46c4.7734 2.7969 10.207 4.2734 15.742 4.2734s10.969-1.4766 15.746-4.2734l116.39-67.195c9.7422-5.625 15.742-16.02 15.742-27.266 0-11.25-6-21.645-15.742-27.27l-116.39-67.195c-9.7422-5.625-21.746-5.625-31.488 0-9.7422 5.625-15.746 16.02-15.746 27.27v134.39c-0.035156 5.5312 1.4062 10.977 4.1719 15.77 2.7695 4.793 6.7617 8.7617 11.574 11.496zm15.742-161.66 116.3 67.199-116.39 67.195z"></path>
  <path d="m400 604.67c54.281 0 106.34-21.562 144.72-59.949 38.387-38.383 59.949-90.441 59.949-144.72 0-54.285-21.562-106.34-59.949-144.73-38.383-38.383-90.441-59.949-144.72-59.949-54.285 0-106.34 21.566-144.73 59.949-38.383 38.383-59.949 90.441-59.949 144.73 0.0625 54.262 21.648 106.29 60.02 144.66 38.367 38.367 90.391 59.953 144.66 60.016zm0-377.86c45.93 0 89.98 18.246 122.46 50.727 32.48 32.477 50.727 76.527 50.727 122.46 0 45.93-18.246 89.98-50.727 122.46-32.477 32.48-76.527 50.727-122.46 50.727-45.934 0-89.984-18.246-122.46-50.727-32.48-32.477-50.727-76.527-50.727-122.46 0.054688-45.918 18.32-89.934 50.785-122.4 32.469-32.465 76.484-50.73 122.4-50.785z"></path>
 </g>

      </g>
      </svg>