<svg id="svg" fill="#BBBBBB" stroke="#BBBBBB" width="200" height="200" version="1.1" viewBox="124 124 552 552" xmlns="http://www.w3.org/2000/svg" stroke-width="20">
    <g id="IconSvg_bgCarrier" stroke-width="0"></g>
    <g id="IconSvg_tracerCarrier" stroke-linecap="round" stroke-linejoin="round" stroke="#CCCCCC" stroke-width="0">
      <g xmlns="http://www.w3.org/2000/svg">
  <path d="m400 603.54c-27.484 0-54.133-5.3906-79.223-15.996-24.234-10.254-45.996-24.938-64.688-43.605s-33.352-40.457-43.605-64.688c-10.629-25.113-15.996-51.766-15.996-79.223 0-27.484 5.3906-54.133 15.996-79.223 10.254-24.234 24.938-45.996 43.605-64.688 18.668-18.691 40.457-33.352 64.688-43.605 25.086-10.66 51.738-16.051 79.223-16.051s54.133 5.3906 79.223 15.996c24.234 10.254 45.996 24.938 64.688 43.605s33.352 40.457 43.605 64.688c10.629 25.113 15.996 51.766 15.996 79.223 0 27.484-5.3906 54.133-15.996 79.223-10.254 24.234-24.938 45.996-43.605 64.688-18.668 18.691-40.457 33.352-64.688 43.605-25.09 10.66-51.742 16.051-79.223 16.051zm0-374.84c-94.465 0-171.3 76.832-171.3 171.3s76.832 171.3 171.3 171.3 171.3-76.832 171.3-171.3c-0.003906-94.465-76.836-171.3-171.3-171.3z"></path>
  <path d="m360 469.42c-8.8906 0-16.121-7.2305-16.121-16.121v-106.61c0-8.8906 7.2305-16.121 16.121-16.121s16.121 7.2305 16.121 16.121v106.61c0 8.8945-7.2305 16.121-16.121 16.121z"></path>
  <path d="m440 469.42c-8.8906 0-16.121-7.2305-16.121-16.121v-106.61c0-8.8906 7.2305-16.121 16.121-16.121s16.121 7.2305 16.121 16.121v106.61c0 8.8945-7.2031 16.121-16.121 16.121z"></path>
 </g>

      </g>
     <g id="IconSvg_iconCarrier">
      <g xmlns="http://www.w3.org/2000/svg">
  <path d="m400 603.54c-27.484 0-54.133-5.3906-79.223-15.996-24.234-10.254-45.996-24.938-64.688-43.605s-33.352-40.457-43.605-64.688c-10.629-25.113-15.996-51.766-15.996-79.223 0-27.484 5.3906-54.133 15.996-79.223 10.254-24.234 24.938-45.996 43.605-64.688 18.668-18.691 40.457-33.352 64.688-43.605 25.086-10.66 51.738-16.051 79.223-16.051s54.133 5.3906 79.223 15.996c24.234 10.254 45.996 24.938 64.688 43.605s33.352 40.457 43.605 64.688c10.629 25.113 15.996 51.766 15.996 79.223 0 27.484-5.3906 54.133-15.996 79.223-10.254 24.234-24.938 45.996-43.605 64.688-18.668 18.691-40.457 33.352-64.688 43.605-25.09 10.66-51.742 16.051-79.223 16.051zm0-374.84c-94.465 0-171.3 76.832-171.3 171.3s76.832 171.3 171.3 171.3 171.3-76.832 171.3-171.3c-0.003906-94.465-76.836-171.3-171.3-171.3z"></path>
  <path d="m360 469.42c-8.8906 0-16.121-7.2305-16.121-16.121v-106.61c0-8.8906 7.2305-16.121 16.121-16.121s16.121 7.2305 16.121 16.121v106.61c0 8.8945-7.2305 16.121-16.121 16.121z"></path>
  <path d="m440 469.42c-8.8906 0-16.121-7.2305-16.121-16.121v-106.61c0-8.8906 7.2305-16.121 16.121-16.121s16.121 7.2305 16.121 16.121v106.61c0 8.8945-7.2031 16.121-16.121 16.121z"></path>
 </g>

      </g>
      </svg>